<?xml version="1.0" standalone="no"?>
<!DOCTYPE svg PUBLIC "-//W3C//DTD SVG 20010904//EN"
 "http://www.w3.org/TR/2001/REC-SVG-20010904/DTD/svg10.dtd">
<svg version="1.0" xmlns="http://www.w3.org/2000/svg"
 width="400.000000pt" height="400.000000pt" viewBox="0 0 400.000000 400.000000"
 preserveAspectRatio="xMidYMid meet">
<metadata>
Created by potrace 1.14, written by Peter Selinger 2001-2017
</metadata>
<g transform="translate(0.000000,400.000000) scale(0.100000,-0.100000)"
fill="#000000" stroke="none">
<path d="M1879 3153 c-39 -82 -86 -179 -104 -218 -18 -38 -61 -128 -95 -200
-60 -124 -101 -211 -209 -437 -27 -57 -72 -151 -100 -210 -28 -60 -51 -109
-51 -110 0 -2 132 -3 294 -3 l294 1 -28 -56 c-15 -30 -38 -77 -50 -105 -12
-27 -44 -95 -70 -150 -110 -230 -170 -357 -170 -360 0 -2 -30 -65 -66 -142
-36 -76 -79 -165 -94 -198 -15 -33 -46 -98 -68 -145 -22 -47 -39 -86 -37 -88
3 -3 30 24 110 113 15 17 51 55 79 85 28 30 98 107 156 170 58 63 112 122 120
130 8 8 60 64 115 125 55 60 109 119 120 131 11 11 57 61 102 110 126 139 130
142 237 258 56 60 106 114 111 120 20 22 220 241 225 246 3 3 24 26 48 51 l42
45 -344 -1 -343 0 17 40 c19 43 61 135 90 200 10 22 46 103 80 180 34 77 71
160 82 185 11 25 29 65 40 90 11 25 30 68 43 95 12 28 32 73 44 100 12 28 26
58 31 67 6 10 10 20 10 23 0 3 -133 5 -295 5 l-296 0 -70 -147z"/>
<path d="M1490 3154 c11 -26 19 -48 18 -49 -2 -1 -34 -18 -71 -39 -243 -134
-443 -370 -530 -626 -51 -147 -62 -214 -62 -385 0 -153 6 -201 40 -321 53
-183 166 -373 302 -507 66 -65 174 -148 187 -144 4 1 18 27 31 57 21 50 22 56
7 64 -59 32 -182 152 -246 241 -193 267 -250 602 -154 913 46 153 138 302 257
423 96 96 254 206 282 197 7 -2 19 -23 29 -47 l17 -43 101 128 c70 88 98 130
90 135 -13 7 -49 13 -133 24 -22 3 -51 8 -65 10 -14 3 -46 7 -72 11 l-48 6 20
-48z"/>
<path d="M2548 3001 c-21 -48 -23 -61 -12 -65 31 -12 132 -93 194 -155 292
-293 380 -719 231 -1107 -140 -363 -493 -624 -882 -651 l-90 -6 2 46 c2 26 0
49 -2 52 -6 5 -289 -132 -289 -140 0 -5 222 -155 256 -173 19 -10 20 -8 23 36
1 26 3 47 4 48 1 2 40 5 87 9 217 16 405 81 582 201 603 410 680 1264 162
1781 -63 62 -139 122 -205 161 l-36 22 -25 -59z"/>
</g>
</svg>
